# xmcd
#
# Track frame offsets:
#	150
#	14917
#	29911
#	46741
#	64408
#	79984
#	96638
#	114585
#	130784
#	147759
#	165614
#	180839
#	198794
#	213853
#	232084
#	249984
#	250813
#	251656
#	252611
#	253456
#	254348
#	255256
#	256128
#	258484
#
# Disc length: 3479 seconds
#
# Revision: 1
# Processed by: cddbd v1.5.2PL0 Copyright (c) Steve Scherf et al.
# Submitted via: audiograbber 1.83.01
#
DISCID=650d9518
DTITLE=Various Artist - CDX 584
DYEAR=2013
DGENRE=Country
TTITLE0=Brad Paisley - I Can't Change The World [Radio Edit]
TTITLE1=Bush Hawg - More Than Corn [Radio Edit 1]
TTITLE2=Charlie Worsham - Want Me Too
TTITLE3=Kip Moore - Young Love [Radio Edit]
TTITLE4=Tyler Hammond - Little Bit Crazy
TTITLE5=Jordan Anderson - Please Don't
TTITLE6=Rosehill - The Bible And The Gun
TTITLE7=James Robert Webb - Born This Day
TTITLE8=Jeff Stansbery - Christmas Kiss
TTITLE9=Little River Band - Mary's Christmas
TTITLE10=Rich Eckhardt - O Come Emmanuel
TTITLE11=Andrew Heller - Silver Bells
TTITLE12=Lisa Matassa - The Christmas Song
TTITLE13=Branch and Dean - The Dash - The Christmas Version
TTITLE14=Little River Band - We Three Kings
TTITLE15=The Chris Weawer Band - Home Town Country - Liner
TTITLE16=The Chris Weawer Band - Kickin' Country - Liner
TTITLE17=The Chris Weawer Band - Super Country Hits - Liner
TTITLE18=The Chris Weawer Band - Today's Best Country - Liner
TTITLE19=The Chris Weawer Band - Today's Best Country Music - Liner
TTITLE20=The Chris Weawer Band - Today's Hot Country Music - Liner
TTITLE21=The Chris Weawer Band - Today's Hot New Country, My Single - Liner
TTITLE22=Rosehill - Save A Life Tonight PSA #1
TTITLE23=Rosehill - Save A Life Tonight PSA #2
EXTD=
EXTT0=
EXTT1=
EXTT2=
EXTT3=
EXTT4=
EXTT5=
EXTT6=
EXTT7=
EXTT8=
EXTT9=
EXTT10=
EXTT11=
EXTT12=
EXTT13=
EXTT14=
EXTT15=
EXTT16=
EXTT17=
EXTT18=
EXTT19=
EXTT20=
EXTT21=
EXTT22=
EXTT23=
PLAYORDER=
